<svg width="48" height="46" viewBox="0 0 48 46" fill="none" xmlns="http://www.w3.org/2000/svg">
<g clip-path="url(#clip0_147_2)">
<path d="M23.5244 2.31738C23.6648 1.88587 24.2457 1.85897 24.4414 2.23633L24.4756 2.31738L28.6357 15.1201C29.1043 16.5621 30.4477 17.538 31.9639 17.5381H45.4248C45.9092 17.5381 46.1106 18.1587 45.7188 18.4434L34.8291 26.3555C33.6024 27.2467 33.0891 28.8265 33.5576 30.2686L37.7168 43.0713C37.8662 43.5318 37.3391 43.9145 36.9473 43.6299L26.0576 35.7178C24.8309 34.8265 23.1691 34.8265 21.9424 35.7178L11.0527 43.6299C10.661 43.9145 10.1338 43.5318 10.2832 43.0713L14.4424 30.2686C14.8817 28.9165 14.4582 27.4435 13.3926 26.5303L13.1709 26.3555L2.28125 18.4434C1.91391 18.1765 2.06754 17.6151 2.4873 17.5459L2.5752 17.5381H16.0361C17.4576 17.538 18.7274 16.6802 19.2666 15.3848L19.3643 15.1201L23.5244 2.31738Z" stroke="#4461D7" stroke-width="3"/>
</g>
<defs>
<clipPath id="clip0_147_2">
<rect width="48" height="46" fill="white"/>
</clipPath>
</defs>
</svg>
