<svg width="48" height="46" viewBox="0 0 48 46" fill="none" xmlns="http://www.w3.org/2000/svg">
<g clip-path="url(#clip0_147_2)">
<path d="M22.0979 1.85411C22.6966 0.0114864 25.3034 0.0114793 25.9021 1.8541L30.0619 14.6565C30.3296 15.4806 31.0975 16.0385 31.964 16.0385L45.4253 16.0385C47.3627 16.0385 48.1683 18.5177 46.6008 19.6565L35.7104 27.5689C35.0095 28.0782 34.7161 28.9809 34.9839 29.805L39.1437 42.6074C39.7424 44.45 37.6334 45.9823 36.066 44.8435L25.1756 36.9311C24.4746 36.4218 23.5254 36.4218 22.8244 36.9311L11.934 44.8435C10.3666 45.9823 8.25764 44.45 8.85634 42.6074L13.0161 29.8049C13.2839 28.9809 12.9905 28.0782 12.2896 27.5689L1.39915 19.6565C-0.168275 18.5177 0.637281 16.0385 2.57473 16.0385L16.036 16.0385C16.9025 16.0385 17.6704 15.4806 17.9381 14.6565L22.0979 1.85411Z" fill="#4461D7"/>
</g>
<defs>
<clipPath id="clip0_147_2">
<rect width="48" height="46" fill="white"/>
</clipPath>
</defs>
</svg>
