<svg width="76" height="76" viewBox="0 0 76 76" fill="none" xmlns="http://www.w3.org/2000/svg">
<path d="M38.4196 40.73C38.1746 40.695 37.8596 40.695 37.5796 40.73C31.4196 40.52 26.5195 35.48 26.5195 29.2849C26.5195 22.9499 31.6296 17.8049 37.9996 17.8049C44.3346 17.8049 49.4796 22.9499 49.4796 29.2849C49.4446 35.48 44.5796 40.52 38.4196 40.73Z" stroke="#2C32B2" stroke-width="5" stroke-linecap="round" stroke-linejoin="round"/>
<path d="M61.5901 63.8303C55.3601 69.5353 47.1001 73.0003 38.0001 73.0003C28.9002 73.0003 20.6402 69.5353 14.4102 63.8303C14.7602 60.5403 16.8602 57.3203 20.6052 54.8003C30.1952 48.4303 45.8751 48.4303 55.3951 54.8003C59.1401 57.3203 61.2401 60.5403 61.5901 63.8303Z" stroke="#2C32B2" stroke-width="5" stroke-linecap="round" stroke-linejoin="round"/>
<path d="M38 73C57.3298 73 73 57.3298 73 38C73 18.67 57.3298 3 38 3C18.67 3 3 18.67 3 38C3 57.3298 18.67 73 38 73Z" stroke="#2C32B2" stroke-width="5" stroke-linecap="round" stroke-linejoin="round"/>
</svg>
