<svg width="418" height="87" viewBox="0 0 418 87" fill="none" xmlns="http://www.w3.org/2000/svg">
<path d="M108.9 66C108.5 66 108.3 65.78 108.3 65.34V27.36C108.3 26.92 108.48 26.7 108.84 26.7H126.06C126.46 26.7 126.66 26.92 126.66 27.36V32.1C126.66 32.54 126.46 32.76 126.06 32.76H115.02V65.34C115.02 65.78 114.82 66 114.42 66H108.9Z" fill="#2C32B2"/>
<path d="M139.936 66.48C138.776 66.48 137.556 66.32 136.276 66C134.996 65.68 133.896 65.26 132.976 64.74L132.916 59.46C133.636 59.9 134.416 60.24 135.256 60.48C136.096 60.72 136.916 60.84 137.716 60.84C138.916 60.84 139.816 60.42 140.416 59.58C141.016 58.74 141.316 57.42 141.316 55.62V45.72C141.316 44.36 141.096 43.38 140.656 42.78C140.256 42.14 139.576 41.82 138.616 41.82C137.696 41.82 136.776 42.12 135.856 42.72C134.936 43.32 133.956 44.2 132.916 45.36L132.256 40.98C133.656 39.46 135.056 38.24 136.456 37.32C137.896 36.4 139.516 35.94 141.316 35.94C143.516 35.94 145.156 36.66 146.236 38.1C147.316 39.5 147.856 41.7 147.856 44.7V55.98C147.856 59.54 147.176 62.18 145.816 63.9C144.496 65.62 142.536 66.48 139.936 66.48ZM127.756 77.1C127.356 77.1 127.156 76.88 127.156 76.44V43.68C127.156 42.4 127.136 41.22 127.096 40.14C127.056 39.06 126.996 38.08 126.916 37.2C126.876 36.72 127.056 36.48 127.456 36.48H132.136C132.496 36.48 132.716 36.68 132.796 37.08C132.876 37.56 132.956 38.22 133.036 39.06C133.116 39.9 133.176 40.66 133.216 41.34L133.756 43.8V76.44C133.756 76.88 133.556 77.1 133.156 77.1H127.756ZM163.133 66.48C159.773 66.48 157.253 65.66 155.573 64.02C153.933 62.34 153.113 59.78 153.113 56.34V37.14C153.113 36.7 153.313 36.48 153.713 36.48H159.113C159.513 36.48 159.713 36.7 159.713 37.14V56.76C159.713 58.16 159.993 59.2 160.553 59.88C161.113 60.56 162.013 60.9 163.253 60.9C164.453 60.9 165.333 60.56 165.893 59.88C166.493 59.16 166.793 58.1 166.793 56.7V52.68C166.793 51.52 166.573 50.68 166.133 50.16C165.693 49.64 165.033 49.38 164.153 49.38C163.153 49.38 162.233 49.68 161.393 50.28C160.593 50.88 159.853 51.62 159.173 52.5L159.053 47.64C160.013 46.6 161.133 45.72 162.413 45C163.693 44.24 165.153 43.86 166.793 43.86C168.833 43.86 170.453 44.52 171.653 45.84C172.853 47.16 173.453 49.26 173.453 52.14V56.52C173.453 59.8 172.573 62.28 170.813 63.96C169.053 65.64 166.493 66.48 163.133 66.48ZM178.433 66C178.033 66 177.833 65.78 177.833 65.34V37.14C177.833 36.7 178.033 36.48 178.433 36.48H183.833C184.233 36.48 184.433 36.7 184.433 37.14V65.34C184.433 65.78 184.233 66 183.833 66H178.433ZM198.066 77.58C194.626 77.58 192.106 76.76 190.506 75.12C188.906 73.48 188.266 71.16 188.586 68.16C188.666 67.6 188.886 67.32 189.246 67.32H194.166C194.606 67.32 194.806 67.58 194.766 68.1C194.686 69.5 194.906 70.56 195.426 71.28C195.986 72.04 196.886 72.42 198.126 72.42C199.446 72.42 200.426 72.02 201.066 71.22C201.746 70.42 202.086 69.08 202.086 67.2V63.48C202.086 61.8 201.686 60.56 200.886 59.76C200.086 58.96 198.766 58.56 196.926 58.56H193.386C193.226 58.56 193.086 58.5 192.966 58.38C192.846 58.26 192.786 58.1 192.786 57.9V53.7C192.786 53.54 192.846 53.4 192.966 53.28C193.086 53.12 193.226 53.04 193.386 53.04H196.566C198.166 53.04 199.366 52.58 200.166 51.66C200.966 50.74 201.366 49.4 201.366 47.64V45.24C201.366 43.8 201.106 42.76 200.586 42.12C200.066 41.48 199.206 41.16 198.006 41.16C196.886 41.16 196.086 41.46 195.606 42.06C195.126 42.66 194.906 43.5 194.946 44.58C194.946 44.82 194.886 45.02 194.766 45.18C194.686 45.3 194.566 45.36 194.406 45.36H189.426C189.026 45.36 188.806 45.08 188.766 44.52C188.526 41.92 189.226 39.84 190.866 38.28C192.546 36.72 195.026 35.94 198.306 35.94C201.506 35.94 203.906 36.68 205.506 38.16C207.106 39.64 207.906 41.82 207.906 44.7V47.28C207.906 49.16 207.506 50.82 206.706 52.26C205.906 53.66 204.786 54.7 203.346 55.38V55.44C205.066 55.88 206.366 56.78 207.246 58.14C208.166 59.5 208.626 61.22 208.626 63.3V66.54C208.626 70.06 207.786 72.78 206.106 74.7C204.426 76.62 201.746 77.58 198.066 77.58ZM219.767 66.48C217.527 66.48 215.887 65.8 214.847 64.44C213.847 63.04 213.347 60.88 213.347 57.96V37.14C213.347 36.7 213.547 36.48 213.947 36.48H219.347C219.747 36.48 219.947 36.7 219.947 37.14V57C219.947 58.32 220.147 59.26 220.547 59.82C220.947 60.38 221.547 60.66 222.347 60.66C223.347 60.66 224.307 60.34 225.227 59.7C226.147 59.02 227.127 58.06 228.167 56.82L228.767 61.02C227.527 62.66 226.147 63.98 224.627 64.98C223.107 65.98 221.487 66.48 219.767 66.48ZM229.067 66C228.627 66 228.387 65.8 228.347 65.4C228.227 64.68 228.127 63.84 228.047 62.88C227.967 61.88 227.907 61.02 227.867 60.3L227.327 58.44V37.14C227.327 36.7 227.547 36.48 227.987 36.48H233.267C233.707 36.48 233.927 36.7 233.927 37.14V58.5C233.927 59.86 233.947 61.12 233.987 62.28C234.027 63.4 234.087 64.38 234.167 65.22C234.247 65.74 234.047 66 233.567 66H229.067ZM290.405 66.48C289.245 66.48 288.025 66.32 286.745 66C285.465 65.68 284.365 65.26 283.445 64.74L283.385 59.46C284.105 59.9 284.885 60.24 285.725 60.48C286.565 60.72 287.385 60.84 288.185 60.84C289.385 60.84 290.285 60.42 290.885 59.58C291.485 58.74 291.785 57.42 291.785 55.62V45.72C291.785 44.36 291.565 43.38 291.125 42.78C290.725 42.14 290.045 41.82 289.085 41.82C288.165 41.82 287.245 42.12 286.325 42.72C285.405 43.32 284.425 44.2 283.385 45.36L282.725 40.98C284.125 39.46 285.525 38.24 286.925 37.32C288.365 36.4 289.985 35.94 291.785 35.94C293.985 35.94 295.625 36.66 296.705 38.1C297.785 39.5 298.325 41.7 298.325 44.7V55.98C298.325 59.54 297.645 62.18 296.285 63.9C294.965 65.62 293.005 66.48 290.405 66.48ZM278.225 77.1C277.825 77.1 277.625 76.88 277.625 76.44V43.68C277.625 42.4 277.605 41.22 277.565 40.14C277.525 39.06 277.465 38.08 277.385 37.2C277.345 36.72 277.525 36.48 277.925 36.48H282.605C282.965 36.48 283.185 36.68 283.265 37.08C283.345 37.56 283.425 38.22 283.505 39.06C283.585 39.9 283.645 40.66 283.685 41.34L284.225 43.8V76.44C284.225 76.88 284.025 77.1 283.625 77.1H278.225ZM317.503 66C317.183 66 316.963 65.78 316.843 65.34C316.763 64.78 316.663 64 316.543 63C316.463 61.96 316.423 61.04 316.423 60.24L315.823 58.86V45.12C315.823 43.64 315.603 42.64 315.163 42.12C314.763 41.56 313.963 41.28 312.763 41.28C310.603 41.28 309.603 42.42 309.763 44.7C309.803 45.14 309.583 45.36 309.103 45.36H304.303C303.863 45.36 303.623 45.06 303.583 44.46C303.343 41.74 304.043 39.64 305.683 38.16C307.323 36.68 309.763 35.94 313.003 35.94C316.283 35.94 318.663 36.68 320.143 38.16C321.663 39.6 322.423 41.94 322.423 45.18V58.5C322.423 60.1 322.443 61.44 322.483 62.52C322.563 63.6 322.623 64.5 322.663 65.22C322.743 65.74 322.563 66 322.123 66H317.503ZM308.623 66.48C306.703 66.48 305.203 65.78 304.123 64.38C303.083 62.98 302.563 61 302.563 58.44C302.563 55.52 303.283 53.3 304.723 51.78C306.203 50.22 308.703 49.26 312.223 48.9L316.483 48.36V52.5L313.243 52.86C311.683 53.06 310.563 53.54 309.883 54.3C309.243 55.02 308.923 56.12 308.923 57.6C308.923 58.8 309.103 59.7 309.463 60.3C309.823 60.9 310.383 61.2 311.143 61.2C311.983 61.2 312.823 60.9 313.663 60.3C314.543 59.7 315.583 58.64 316.783 57.12L317.203 61.38C315.683 63.1 314.283 64.38 313.003 65.22C311.723 66.06 310.263 66.48 308.623 66.48ZM342.714 66C342.274 66 342.054 65.78 342.054 65.34V37.14C342.054 36.7 342.274 36.48 342.714 36.48H348.054C348.454 36.48 348.654 36.7 348.654 37.14V65.34C348.654 65.78 348.454 66 348.054 66H342.714ZM328.674 66C328.274 66 328.074 65.78 328.074 65.34V37.14C328.074 36.7 328.274 36.48 328.674 36.48H334.074C334.474 36.48 334.674 36.7 334.674 37.14V65.34C334.674 65.78 334.474 66 334.074 66H328.674ZM333.774 53.88V48.24H343.194V53.88H333.774ZM360.685 66.48C358.445 66.48 356.805 65.8 355.765 64.44C354.765 63.04 354.265 60.88 354.265 57.96V37.14C354.265 36.7 354.465 36.48 354.865 36.48H360.265C360.665 36.48 360.865 36.7 360.865 37.14V57C360.865 58.32 361.065 59.26 361.465 59.82C361.865 60.38 362.465 60.66 363.265 60.66C364.265 60.66 365.225 60.34 366.145 59.7C367.065 59.02 368.045 58.06 369.085 56.82L369.685 61.02C368.445 62.66 367.065 63.98 365.545 64.98C364.025 65.98 362.405 66.48 360.685 66.48ZM369.985 66C369.545 66 369.305 65.8 369.265 65.4C369.145 64.68 369.045 63.84 368.965 62.88C368.885 61.88 368.825 61.02 368.785 60.3L368.245 58.44V37.14C368.245 36.7 368.465 36.48 368.905 36.48H374.185C374.625 36.48 374.845 36.7 374.845 37.14V58.5C374.845 59.86 374.865 61.12 374.905 62.28C374.945 63.4 375.005 64.38 375.085 65.22C375.165 65.74 374.965 66 374.485 66H369.985ZM381.057 66C380.657 66 380.457 65.78 380.457 65.34V43.98C380.457 42.58 380.437 41.32 380.397 40.2C380.357 39.04 380.297 38.06 380.217 37.26C380.177 36.74 380.377 36.48 380.817 36.48H385.497C385.817 36.48 386.017 36.66 386.097 37.02C386.177 37.54 386.237 38.1 386.277 38.7C386.357 39.26 386.417 39.86 386.457 40.5C387.657 39.1 388.897 38 390.177 37.2C391.457 36.36 392.937 35.94 394.617 35.94C396.137 35.94 397.357 36.3 398.277 37.02C399.197 37.74 399.877 38.84 400.317 40.32C401.517 38.96 402.757 37.9 404.037 37.14C405.357 36.34 406.797 35.94 408.357 35.94C410.397 35.94 411.957 36.64 413.037 38.04C414.117 39.4 414.657 41.46 414.657 44.22V65.34C414.657 65.78 414.457 66 414.057 66H408.657C408.257 66 408.057 65.78 408.057 65.34V45.18C408.057 44.02 407.857 43.18 407.457 42.66C407.057 42.1 406.437 41.82 405.597 41.82C404.837 41.82 404.077 42.06 403.317 42.54C402.557 43.02 401.737 43.72 400.857 44.64V65.34C400.857 65.78 400.657 66 400.257 66H394.857C394.457 66 394.257 65.78 394.257 65.34V45.18C394.257 44.02 394.057 43.18 393.657 42.66C393.257 42.1 392.637 41.82 391.797 41.82C391.037 41.82 390.277 42.06 389.517 42.54C388.757 43.02 387.937 43.72 387.057 44.64V65.34C387.057 65.78 386.857 66 386.457 66H381.057Z" fill="white"/>
<path d="M259.369 66C258.969 66 258.769 65.78 258.769 65.34V27.36C258.769 26.92 258.949 26.7 259.309 26.7H276.529C276.929 26.7 277.129 26.92 277.129 27.36V32.1C277.129 32.54 276.929 32.76 276.529 32.76H265.489V65.34C265.489 65.78 265.289 66 264.889 66H259.369Z" fill="#D79A44"/>
<path d="M51.3134 14.8521C51.3134 14.8521 50.2942 7 47.6471 7C45.0001 7 34.4119 9.7181 34.4119 9.7181C34.4119 9.7181 23.8236 20.5854 21.1766 20.5854C21.1766 20.5854 15.8825 20.5854 10.5884 26.0191C5.29427 31.4528 5.29426 42.3201 5.29426 42.3201C5.29426 42.3201 0.000153343 53.1874 0.000153343 58.6211C0.000153343 64.0548 2.64721 69.4884 5.29426 72.2065C7.94132 74.9246 18.5295 77.6402 18.5295 77.6402C18.5295 77.6402 21.1766 83.0739 26.4707 85.792C42.353 88.51 52.9412 85.792 52.9412 85.792L58.2353 80.3583C58.2353 80.3583 76.7647 77.6402 79.4118 77.6402C82.0588 77.6402 90 66.7729 90 64.0548C90 61.3367 90 53.1874 87.3529 45.0357C82.0457 38.3479 77.5192 45.9143 77.5192 45.9143C77.5192 45.9143 64.2641 43.7815 61.617 38.3479C45.0001 38.3479 48.395 23.3035 48.395 23.3035L51.3134 14.8521Z" fill="#6C5A5A"/>
<path d="M50.4802 14.2263C50.4802 14.2263 50.1836 7.97852 47.6927 7.97852C45.2018 7.97852 34.4839 10.8837 34.4839 10.8837C34.4839 10.8837 25.0233 21.0532 22.5324 21.0532C22.5324 21.0532 17.1378 20.9394 12.1534 26.057C7.16895 31.1746 7.63218 40.2594 7.63218 40.2594C7.63218 40.2594 2.64778 50.4896 2.64778 55.6046C2.64778 60.7197 5.13866 65.8373 7.62953 68.3961C10.1204 70.9549 20.0866 73.5112 20.0866 73.5112C20.0866 73.5112 22.5775 78.6263 27.5619 81.1851C42.5098 83.7439 52.4759 81.1851 52.4759 81.1851L57.4577 76.07C57.4577 76.07 74.8965 73.5112 77.3874 73.5112C79.8782 73.5112 87.3535 63.2785 87.3535 60.7197C87.3535 58.1609 87.3535 50.487 84.8626 42.8131C79.4257 44.2645 78.8897 42.1595 78.8897 42.1595C78.8897 42.1595 68.635 43.3517 66.1441 38.2341C52.2074 36.669 45.1794 24.6942 45.1794 24.6942L50.4802 14.2263Z" fill="#8D6D6D"/>
<path d="M58.4599 12.9191C58.4599 12.9191 49.8464 10.3831 47.517 10.3831C45.1876 10.3831 35.1632 12.9191 35.1632 12.9191C35.1632 12.9191 26.3167 21.7966 23.9873 21.7966C23.9873 21.7966 18.942 21.698 14.2805 26.1632C9.62171 30.6285 10.0505 38.5603 10.0505 38.5603C10.0505 38.5603 9.32258 49.2936 7.43523 49.6172C2.64406 50.4365 6.99318 59.0054 9.32259 61.2381C11.652 63.4707 27.8785 64.4669 27.8785 64.4669C27.8785 64.4669 27.3067 71.4328 31.9682 73.668C45.9473 75.9006 51.9931 74.29 51.9931 74.29L56.652 69.8247C56.652 69.8247 68.0078 59.4656 70.3372 59.4656C72.6666 59.4656 84.6128 58.659 84.6128 56.4264C84.6128 54.1938 91.0385 61.8588 85.44 41.8182C65.9047 43.6539 70.3372 35.162 70.3372 35.162C70.3372 35.162 65.8215 31.1797 56.9115 28.3921C46.7865 30.0419 50.4195 20.0861 50.4195 20.0861L58.4599 12.9191Z" fill="#DBBDBD"/>
<path d="M62.6347 60.9119L52.0968 65.5921L53.4599 52.5705L64.7734 53.9156L62.6347 60.9119Z" fill="#8D6D6D"/>
<path d="M88.4199 54.7854C88.4199 54.7854 85.4314 64.3076 84.6452 65.4378C83.859 66.5681 73.7949 65.7615 72.5376 65.7615C71.2802 65.7615 65.147 68.8285 65.147 68.8285C65.147 68.8285 73.3238 70.9271 76.1535 70.6035C78.9832 70.2798 86.3393 69.0181 87.0037 67.2128C87.6682 65.4075 88.4199 54.7854 88.4199 54.7854Z" fill="#6C5A5A"/>
<path d="M56.6517 67.0776C55.3547 66.6856 46.4315 63.0421 44.5441 63.2039C42.6568 63.3658 34.6362 67.7223 36.5235 69.1762C38.4109 70.63 48.79 69.4998 51.7759 69.4998C54.7617 69.4998 59.3253 67.8841 56.6517 67.0776ZM79.6123 43.0028C78.8102 41.559 68.132 41.066 68.132 41.066C68.132 41.066 54.2932 46.3935 54.2932 47.2C54.2932 48.0066 66.872 53.4959 68.132 53.6552C69.392 53.8145 80.2423 44.133 79.6123 43.0028ZM48.6338 52.8486C48.8826 51.5718 43.2868 43.8094 42.1856 43.1646C41.0844 42.5199 26.3033 38.8055 23.7886 38.8055C21.2739 38.8055 13.2533 44.4541 13.0945 45.5844C12.9383 46.7146 20.17 54.4618 22.0574 55.1065C23.9447 55.7538 48.1626 55.2684 48.6338 52.8486ZM34.48 31.5413C35.0756 32.8991 20.3262 34.7701 18.7539 34.1228C17.1815 33.4781 14.3518 29.119 14.823 27.9888C15.2942 26.8586 19.855 23.6297 22.2136 23.9534C24.5747 24.2795 33.0665 28.315 34.48 31.5413ZM46.1165 11.6903C44.7982 11.9609 36.0524 13.9508 34.9512 15.5639C33.85 17.1771 40.1394 22.1809 41.8706 22.3427C43.5991 22.5045 53.4502 15.6019 54.7075 14.7953C55.9649 13.9887 48.4776 11.2048 46.1165 11.6903Z" fill="#DBA9A9"/>
<path d="M58.0684 78.51C59.1696 76.8968 57.4384 71.5694 56.4961 72.2141C55.5537 72.8589 52.7214 74.7957 52.5652 76.4114C52.409 78.0245 49.5767 81.0916 47.5332 82.06C45.4896 83.0284 34.3244 83.0284 32.437 82.3836C30.5497 81.7388 26.1476 78.1863 25.0464 76.0877C23.9453 73.9891 22.6747 73.8349 20.0859 73.5087C17.497 73.1825 14.9982 75.6427 18.5294 77.6402C22.0579 79.6377 25.8326 83.1902 30.2347 83.9968C34.6367 84.8033 48.9467 85.4506 51.464 84.4822C53.9814 83.5138 58.0684 78.51 58.0684 78.51Z" fill="#6C5A5A"/>
<path d="M39.1765 66.8538C40.5026 66.1736 40.9976 60.5452 40.3147 60.0775C39.6318 59.6097 33.2577 60.5453 31.778 60.7779C30.2982 61.0105 21.3062 60.3101 20.3956 61.2456C19.485 62.1812 17.2906 65.6098 16.5256 67.6705C15.7606 69.7337 20.7371 69.4227 22.6721 68.9549C24.6071 68.4872 37.3553 67.7893 39.1765 66.8538ZM59.3285 29.6045C57.6 29.6045 50.3656 29.4426 48.7932 29.6045C47.2209 29.7663 42.1888 34.2846 44.5473 34.7701C46.9059 35.2556 53.1953 36.8687 54.1403 37.0305C55.0853 37.1924 58.5423 34.1253 59.6435 33.3188C60.742 32.5097 61.2132 29.6045 59.3285 29.6045ZM39.5126 25.0861C38.6391 23.7435 35.2668 23.3111 35.1106 24.7624C34.9544 26.2163 35.8968 29.4426 37.7841 29.2808C39.6715 29.1215 40.7726 27.0229 39.5126 25.0861ZM48.6344 59.142C47.0647 58.9624 44.0735 58.6565 44.0735 59.9485C44.0735 61.2406 45.9609 61.7235 48.1632 61.5617C50.3629 61.4024 50.0506 59.3038 48.6344 59.142Z" fill="#8D6D6D"/>
<path d="M54.7671 41.2278C53.3933 40.1001 48.6339 39.9357 47.5327 40.4212C46.4315 40.9067 48.79 44.2948 50.2062 44.4566C51.6224 44.6159 56.3394 42.5173 54.7671 41.2278Z" fill="#DBA9A9"/>
<path d="M23.318 65.9208C21.7483 65.5187 17.971 65.1142 18.1298 66.2444C18.286 67.3746 19.8583 69.4733 21.1183 69.3114C22.3783 69.1496 24.5754 66.2444 23.318 65.9208ZM33.5383 77.2205C31.8019 76.9449 29.1363 75.6073 29.2924 77.2205C29.4486 78.8336 31.336 80.9322 33.3821 80.6111C35.4257 80.2875 35.5819 77.5416 33.5383 77.2205Z" fill="#6C5A5A"/>
<path d="M274.049 16.9513C273.877 16.8917 273.704 16.8336 273.531 16.7763C273.311 16.7021 273.091 16.6245 272.872 16.5463C272 16.2359 271.125 15.9373 270.244 15.6512C269.72 15.4803 269.199 15.3009 268.678 15.1176C268.101 14.9143 267.522 14.717 266.94 14.5277C266.183 14.2817 265.431 14.0256 264.678 13.7671C263.846 13.4813 263.014 13.1969 262.18 12.9169C261.355 12.6401 260.533 12.3596 259.71 12.0774C258.516 11.6677 257.32 11.2634 256.123 10.8614C255.757 10.7383 255.391 10.6151 255.025 10.4919C254.934 10.4614 254.843 10.4309 254.75 10.3995C254.24 10.2277 253.73 10.0545 253.221 9.88007C253.164 9.86079 253.108 9.84151 253.05 9.82165C252.778 9.72838 252.505 9.63495 252.233 9.54117C251.73 9.36858 251.226 9.2 250.719 9.04007C250.629 9.01141 250.538 8.98274 250.445 8.95321C249.896 8.81221 249.376 8.86097 248.863 9.11312C248.319 9.50763 248.135 10.0516 247.932 10.6596C247.908 10.7305 247.884 10.8015 247.859 10.8746C247.607 11.6267 247.376 12.3847 247.145 13.143C247.009 13.5896 246.871 14.0359 246.733 14.4819C246.693 14.6102 246.693 14.6102 246.653 14.7411C246.629 14.8205 246.604 14.8999 246.578 14.9818C246.546 15.0872 246.546 15.0872 246.513 15.1947C246.448 15.3679 246.394 15.4957 246.274 15.6365C246.066 15.7101 245.866 15.7712 245.653 15.8259C244.665 16.0837 243.898 16.631 243.317 17.4896C242.921 18.1512 242.629 18.8712 242.591 19.6453C242.518 19.7232 242.44 19.7975 242.362 19.8703C242.311 19.9176 242.26 19.9648 242.208 20.0135C242.123 20.0915 242.123 20.0915 242.036 20.171C241.977 20.2257 241.919 20.2804 241.858 20.3367C241.729 20.4559 241.601 20.5751 241.472 20.6941C241.198 20.9475 240.926 21.2018 240.653 21.4561C240.144 21.93 239.636 22.4035 239.125 22.8752C238.771 23.2029 238.417 23.5319 238.065 23.8618C237.93 23.9871 237.795 24.112 237.66 24.2364C237.47 24.4111 237.282 24.5874 237.094 24.7641C237.038 24.8147 236.982 24.8654 236.924 24.9175C236.502 25.3192 236.235 25.7685 236.18 26.3541C236.167 27.1679 236.57 27.6101 237.096 28.1744C237.17 28.254 237.243 28.3337 237.316 28.4134C237.516 28.6319 237.718 28.8494 237.919 29.0667C238.137 29.3014 238.353 29.537 238.57 29.7725C238.995 30.2334 239.42 30.6935 239.845 31.1534C240.191 31.527 240.537 31.901 240.882 32.2751C240.956 32.355 240.956 32.355 241.031 32.4365C241.131 32.5447 241.231 32.6528 241.331 32.761C242.267 33.7752 243.205 34.7885 244.142 35.8015C245 36.7285 245.857 37.6567 246.713 38.5855C247.592 39.539 248.472 40.4918 249.353 41.4437C249.848 41.9782 250.342 42.513 250.835 43.0486C251.255 43.5044 251.676 43.9595 252.098 44.4137C252.313 44.6455 252.528 44.8776 252.741 45.1106C252.937 45.3239 253.134 45.5361 253.332 45.7477C253.403 45.8244 253.474 45.9015 253.544 45.9789C254.198 46.6964 254.198 46.6964 254.699 46.7266C255.174 46.7165 255.396 46.5986 255.745 46.2807C255.817 46.2159 255.888 46.151 255.962 46.0842C256.04 46.0129 256.118 45.9416 256.196 45.8703C256.255 45.8164 256.255 45.8164 256.315 45.7614C256.523 45.5711 256.731 45.3805 256.938 45.1896C257.152 44.9929 257.367 44.7975 257.583 44.6024C257.749 44.4518 257.913 44.3002 258.078 44.1483C258.157 44.0759 258.236 44.0038 258.316 43.9321C258.427 43.8315 258.537 43.7293 258.647 43.6271C258.742 43.5407 258.742 43.5407 258.838 43.4525C259.079 43.1511 259.122 42.8543 259.116 42.479C259.073 42.1227 258.961 42.0003 258.716 41.7409C258.656 41.6769 258.596 41.6128 258.534 41.5468C258.464 41.4731 258.464 41.4731 258.393 41.3979C258.466 41.3315 258.54 41.265 258.616 41.1965C258.89 40.9481 259.164 40.6986 259.437 40.4487C259.555 40.341 259.674 40.2336 259.792 40.1266C259.964 39.972 260.134 39.8163 260.304 39.6605C260.356 39.6133 260.409 39.5662 260.463 39.5176C261.073 38.9541 261.322 38.3741 261.385 37.561C261.4 36.7247 260.916 36.1871 260.379 35.6101C260.268 35.4906 260.16 35.3691 260.052 35.2473C259.567 34.7138 259.115 34.3744 258.37 34.3048C258.317 34.3087 258.263 34.3125 258.208 34.3165C258.112 33.9965 258.053 33.6711 257.991 33.3426C257.882 32.8487 257.507 32.5303 257.177 32.1697C257.102 32.087 257.027 32.0039 256.953 31.9203C256.361 31.2544 255.825 30.7854 254.894 30.7323C254.806 30.4715 254.78 30.2149 254.756 29.9413C254.664 29.3765 254.282 29.03 253.91 28.6278C253.798 28.5061 253.688 28.3829 253.578 28.2595C253.02 27.6469 252.485 27.2422 251.626 27.1895C251.015 27.2092 250.483 27.3431 250.029 27.7652C249.978 27.8123 249.927 27.8594 249.875 27.908C249.821 27.9587 249.766 28.0094 249.71 28.0616C249.626 28.1396 249.626 28.1396 249.54 28.2192C249.361 28.3852 249.183 28.5517 249.004 28.7181C248.883 28.8308 248.761 28.9435 248.64 29.0561C248.343 29.3322 248.045 29.6086 247.749 29.8852C247.423 29.5285 247.099 29.1703 246.777 28.811C246.667 28.6891 246.557 28.5675 246.446 28.4463C246.287 28.2715 246.129 28.0953 245.971 27.9189C245.922 27.8656 245.872 27.8122 245.822 27.7572C245.426 27.3107 245.26 26.886 245.168 26.2966C245.22 25.568 245.602 25.1514 246.126 24.6686C246.473 24.3726 246.473 24.3726 246.912 24.319C246.97 24.3295 247.029 24.34 247.089 24.3508C247.873 24.47 248.888 24.042 249.533 23.6019C250.532 22.8022 251.134 21.8105 251.31 20.5361C251.329 20.3509 251.336 20.1718 251.336 19.9855C251.367 19.6269 251.463 19.3121 251.575 18.9698C251.594 18.9065 251.614 18.8432 251.635 18.7781C251.837 18.1413 252.149 17.7701 252.69 17.3595C253.304 17.1 253.888 17.2851 254.481 17.4918C254.539 17.5118 254.597 17.5319 254.658 17.5525C254.781 17.5948 254.904 17.6373 255.026 17.6799C255.214 17.745 255.402 17.8094 255.589 17.8737C255.709 17.915 255.829 17.9563 255.949 17.9977C256.005 18.0169 256.06 18.036 256.118 18.0558C256.393 18.1517 256.659 18.2534 256.921 18.3836C256.89 18.4716 256.86 18.5597 256.828 18.6504C256.598 19.3194 256.378 19.9901 256.179 20.6684C256.16 20.731 256.142 20.7937 256.122 20.8582C255.981 21.3465 255.868 21.7667 255.979 22.2696C255.994 22.3399 256.009 22.4102 256.024 22.4826C256.194 23.1366 256.594 23.6277 257.122 24.0398C257.467 24.2362 257.841 24.3519 258.223 24.4587C258.353 24.4953 258.481 24.5372 258.608 24.5798C259.365 24.8249 259.944 24.7175 260.694 24.4633C260.755 24.5345 260.816 24.6057 260.879 24.679C261.048 24.8719 261.22 25.0619 261.396 25.2481C261.436 25.291 261.477 25.334 261.519 25.3782C261.761 25.5964 262.01 25.693 262.321 25.7793C262.417 25.8129 262.513 25.8471 262.608 25.8819C262.714 25.9198 262.82 25.9576 262.925 25.9953C263 26.0219 263 26.0219 263.076 26.049C263.567 26.2163 264.019 26.2994 264.541 26.1822C264.612 26.1673 264.683 26.1524 264.756 26.1371C264.967 26.0631 265.075 25.9754 265.226 25.8132C265.253 25.8783 265.279 25.9433 265.306 26.0103C265.631 26.6535 266.116 27.0671 266.793 27.2858C266.899 27.325 267.004 27.3644 267.11 27.4042C268.321 27.8518 268.321 27.8518 268.883 27.7707C268.946 27.7624 269.01 27.7542 269.075 27.7457C269.688 27.6162 270.196 27.2095 270.573 26.7122C270.896 26.173 271.068 25.576 271.248 24.9799C271.301 24.8069 271.354 24.6339 271.408 24.461C271.545 24.0132 271.545 24.0132 271.607 23.8096C271.681 23.5378 271.681 23.5378 271.847 23.3179C271.996 23.3475 271.996 23.3475 272.163 23.4033C272.515 23.5032 272.807 23.5167 273.164 23.4101C273.758 23.0062 273.931 22.5218 274.118 21.8544C274.161 21.7112 274.204 21.568 274.246 21.4248C274.29 21.2793 274.332 21.1336 274.374 20.9878C274.454 20.7177 274.537 20.4491 274.622 20.1807C274.647 20.0994 274.673 20.018 274.7 19.9342C274.748 19.7823 274.796 19.6304 274.844 19.4785C275.198 18.3378 275.349 17.4208 274.049 16.9513Z" fill="#020102"/>
<path d="M242.836 21.1309C242.128 21.7738 241.421 22.4182 240.716 23.0644C240.389 23.3645 240.061 23.664 239.732 23.9624C239.415 24.2503 239.099 24.5395 238.783 24.8297C238.663 24.9402 238.542 25.0502 238.42 25.1598C238.25 25.3132 238.082 25.4683 237.914 25.6239C237.864 25.6689 237.813 25.7138 237.761 25.7602C237.715 25.8031 237.67 25.846 237.622 25.8902C237.583 25.9267 237.543 25.9631 237.501 26.0007C237.397 26.1705 237.347 26.3163 237.346 26.5149C237.448 26.8959 237.783 27.1714 238.046 27.45C238.118 27.5281 238.19 27.6063 238.262 27.6845C238.459 27.8994 238.658 28.1126 238.858 28.3255C239.073 28.5554 239.286 28.7868 239.499 29.0181C239.869 29.4185 240.24 29.8179 240.612 30.2168C241.149 30.7934 241.685 31.3715 242.22 31.9499C243.089 32.8883 243.959 33.8255 244.83 34.762C245.675 35.6718 246.521 36.5821 247.365 37.4931C247.417 37.5493 247.469 37.6054 247.523 37.6633C247.784 37.9449 248.045 38.2266 248.306 38.5083C250.472 40.8456 252.641 43.1809 254.81 45.5152C255.833 44.5699 256.855 43.6246 257.908 42.6506C257.308 41.9987 257.308 41.9987 256.695 41.3335C255.413 39.9411 254.131 38.5479 252.85 37.1542C252.651 36.9376 252.452 36.7209 252.253 36.5043C252.213 36.4612 252.173 36.418 252.133 36.3736C251.492 35.6763 250.85 34.9795 250.208 34.2828C249.549 33.5675 248.89 32.8516 248.232 32.1351C247.827 31.6934 247.421 31.2521 247.014 30.8114C246.701 30.4729 246.39 30.1335 246.079 29.7939C245.951 29.6551 245.824 29.5166 245.696 29.3783C244.38 27.9864 244.38 27.9864 243.956 26.1545C244.035 25.2323 244.527 24.5083 245.135 23.8399C245.067 23.803 245.067 23.803 244.999 23.7653C243.817 23.0652 243.664 22.0271 242.836 21.1309Z" fill="#D9758E"/>
<path d="M273.942 18.2583C273.735 18.0955 273.504 18.0189 273.257 17.9323C273.171 17.902 273.084 17.8717 272.996 17.8405C272.903 17.8083 272.81 17.7762 272.715 17.7431C272.618 17.7093 272.522 17.6755 272.425 17.6417C271.765 17.4115 271.101 17.1903 270.436 16.9744C269.914 16.8045 269.395 16.626 268.878 16.4436C268.3 16.2403 267.722 16.043 267.139 15.8537C266.383 15.6077 265.63 15.3516 264.877 15.0931C263.674 14.6796 262.468 14.2716 261.261 13.8663C260.895 13.7432 260.529 13.62 260.163 13.4968C260.072 13.4661 259.98 13.4355 259.887 13.4039C259.384 13.2346 258.882 13.0644 258.381 12.893C258.299 12.8652 258.299 12.8652 258.216 12.8369C257.997 12.762 257.778 12.6871 257.559 12.6121C256.82 12.3597 256.079 12.1126 255.337 11.871C254.822 11.7028 254.311 11.5261 253.8 11.3463C252.98 11.0576 252.155 10.7817 251.327 10.5142C251.128 10.4498 250.93 10.3846 250.732 10.3192C250.614 10.2809 250.496 10.2427 250.378 10.2045C250.325 10.1869 250.272 10.1692 250.217 10.1511C249.965 10.0704 249.824 10.0389 249.555 10.0842C249.275 10.2953 249.168 10.4749 249.067 10.8056C249.041 10.8891 249.015 10.9726 248.988 11.0586C248.961 11.1488 248.934 11.2391 248.906 11.3322C248.862 11.4756 248.818 11.619 248.773 11.7624C248.727 11.9145 248.68 12.0668 248.634 12.2191C248.536 12.5429 248.434 12.8659 248.333 13.1888C247.782 14.9411 247.782 14.9411 247.595 15.623C247.817 15.7739 248.03 15.8554 248.286 15.9407C249.326 16.3256 249.944 17.0121 250.659 17.8268C250.687 17.7867 250.715 17.7465 250.744 17.7052C251.321 16.8966 251.967 16.2606 252.959 16.0496C253.854 15.9269 254.678 16.248 255.499 16.549C255.769 16.648 256.04 16.745 256.31 16.8421C256.364 16.8615 256.418 16.8808 256.473 16.9007C256.921 17.0614 257.372 17.2119 257.825 17.3577C258.502 17.5762 259.173 17.8097 259.843 18.0483C260.596 18.3168 261.352 18.5761 262.114 18.8229C262.633 18.9916 263.149 19.1691 263.663 19.3506C264.241 19.5539 264.82 19.7512 265.402 19.9405C266.158 20.1866 266.911 20.4427 267.664 20.7011C269.352 21.2808 269.352 21.2808 270.136 21.5461C270.274 21.5927 270.412 21.6396 270.549 21.6864C271.009 21.8418 271.47 21.9865 271.939 22.1143C272.159 22.1768 272.369 22.253 272.581 22.3365C272.767 22.1059 272.863 21.9012 272.949 21.6201C272.974 21.5399 272.999 21.4597 273.024 21.3771C273.05 21.2915 273.076 21.2059 273.103 21.1177C273.13 21.03 273.157 20.9423 273.185 20.8519C273.268 20.5809 273.35 20.3097 273.433 20.0385C273.484 19.8718 273.534 19.7051 273.585 19.5385C273.673 19.2493 273.761 18.96 273.848 18.6705C273.865 18.6135 273.882 18.5566 273.9 18.4979C273.937 18.3637 273.937 18.3637 273.942 18.2583Z" fill="#D9758E"/>
<path d="M248.162 17.0131C248.113 16.9886 248.064 16.9642 248.014 16.939C247.132 16.556 246.288 16.7012 245.413 17.0366C244.775 17.3255 244.185 17.9974 243.909 18.6286C243.828 18.8534 243.765 19.076 243.717 19.3094C243.702 19.3835 243.687 19.4575 243.671 19.5339C243.591 20.2025 243.761 20.9073 244.087 21.4855C244.116 21.5367 244.145 21.5879 244.174 21.6407C244.693 22.4396 245.405 22.9825 246.333 23.2087C247.104 23.358 247.871 23.2178 248.576 22.8421C249.31 22.3201 249.936 21.6438 250.124 20.745C250.14 20.6301 250.153 20.515 250.164 20.3997C250.174 20.3139 250.183 20.2282 250.193 20.1398C250.175 18.7447 249.412 17.6206 248.162 17.0131Z" fill="#C6D7F4"/>
<path d="M256.193 32.7746C256.139 32.7149 256.086 32.6551 256.032 32.5935C255.661 32.189 255.392 31.9796 254.827 31.9285C254.465 31.9411 254.257 32.0012 253.99 32.2509C253.941 32.2966 253.891 32.3423 253.841 32.3894C253.764 32.4615 253.764 32.4615 253.686 32.5351C253.639 32.5793 253.591 32.6234 253.542 32.6689C253.365 32.8336 253.189 32.9992 253.013 33.1648C252.618 33.5342 252.223 33.9036 251.816 34.2841C252.644 35.1802 253.473 36.0762 254.326 36.9994C254.715 36.6462 255.104 36.2929 255.504 35.929C255.688 35.7631 255.688 35.7631 255.876 35.594C255.973 35.505 256.07 35.416 256.167 35.3269C256.243 35.2592 256.243 35.2592 256.32 35.1902C256.656 34.8796 256.862 34.6111 256.903 34.1414C256.9 34.085 256.897 34.0286 256.894 33.9705C256.892 33.9134 256.89 33.8564 256.887 33.7976C256.831 33.365 256.472 33.0802 256.193 32.7746Z" fill="#FCFCFC"/>
<path d="M270.601 22.8582C269.868 22.5833 269.132 22.3157 268.394 22.053C268.316 22.0246 268.238 21.9963 268.157 21.967C268.083 21.9407 268.008 21.9144 267.931 21.8873C267.865 21.8637 267.799 21.8401 267.731 21.8158C267.521 21.7592 267.332 21.749 267.114 21.7507C267.021 22.0388 266.928 22.3269 266.835 22.6152C266.804 22.7128 266.772 22.8103 266.741 22.9079C266.579 23.4088 266.42 23.9105 266.275 24.4163C266.254 24.4896 266.233 24.563 266.211 24.6386C266.136 25.0163 266.244 25.2935 266.397 25.6369C266.672 25.9954 266.957 26.1378 267.369 26.293C267.427 26.3151 267.484 26.3373 267.544 26.36C268.04 26.5436 268.513 26.6769 269.047 26.561C269.426 26.3274 269.603 26.1292 269.743 25.708C269.783 25.5892 269.783 25.5892 269.823 25.468C269.85 25.384 269.877 25.3001 269.905 25.2136C269.932 25.1302 269.959 25.0467 269.987 24.9608C270.07 24.7032 270.151 24.4452 270.232 24.1871C270.26 24.0994 270.288 24.0117 270.317 23.9213C270.343 23.8368 270.37 23.7523 270.397 23.6652C270.421 23.5895 270.445 23.5138 270.47 23.4358C270.525 23.2437 270.567 23.0547 270.601 22.8582Z" fill="#FCFCFC"/>
<path d="M266.074 21.4025C265.777 21.2312 265.485 21.109 265.159 21.0005C265.088 20.9768 265.088 20.9768 265.015 20.9525C264.865 20.9023 264.715 20.8526 264.564 20.8029C264.465 20.7697 264.365 20.7364 264.265 20.703C263.744 20.5291 263.222 20.3582 262.698 20.1927C262.544 20.3904 262.438 20.5586 262.367 20.7979C262.35 20.8543 262.333 20.9106 262.315 20.9686C262.289 21.0584 262.289 21.0584 262.262 21.15C262.224 21.2769 262.186 21.4038 262.148 21.5307C262.129 21.5947 262.11 21.6588 262.091 21.7249C262.036 21.9064 261.978 22.0869 261.92 22.2673C261.902 22.3226 261.885 22.3779 261.866 22.4349C261.833 22.5386 261.8 22.6421 261.765 22.7454C261.632 23.1705 261.593 23.5574 261.775 23.9671C262.079 24.4921 262.534 24.6741 263.086 24.8644C263.151 24.8872 263.217 24.91 263.284 24.9335C263.645 25.0496 263.928 25.112 264.312 25.0462C264.366 25.038 264.42 25.0298 264.475 25.0214C264.769 24.8897 265.003 24.6829 265.15 24.3973C265.214 24.229 265.268 24.0603 265.319 23.8882C265.339 23.8256 265.359 23.763 265.38 23.6985C265.445 23.4919 265.508 23.2846 265.57 23.0772C265.618 22.921 265.666 22.7649 265.713 22.6087C265.836 22.2072 265.956 21.8051 266.074 21.4025Z" fill="#FDFDFD"/>
<path d="M261.553 19.8425C261.269 19.7032 260.98 19.5936 260.682 19.4883C260.633 19.4711 260.585 19.454 260.535 19.4363C260.432 19.4002 260.33 19.3642 260.228 19.3282C260.073 19.274 259.919 19.2195 259.764 19.165C259.238 18.9793 258.711 18.7978 258.177 18.6327C257.967 18.8864 257.878 19.127 257.782 19.4394C257.768 19.4872 257.753 19.5349 257.738 19.5841C257.707 19.685 257.677 19.786 257.646 19.8871C257.601 20.0394 257.554 20.1915 257.507 20.3435C257.009 21.9749 257.009 21.9749 257.273 22.4865C257.698 23.1605 258.571 23.3605 259.313 23.5248C259.697 23.5533 259.974 23.485 260.297 23.2637C260.982 22.594 261.162 21.1434 261.427 20.2611C261.462 20.1449 261.462 20.1449 261.498 20.0263C261.516 19.9656 261.534 19.905 261.553 19.8425Z" fill="#FCFCFC"/>
<path d="M252.938 29.2479C252.886 29.1886 252.835 29.1294 252.781 29.0683C252.455 28.7092 252.168 28.4613 251.68 28.3654C251.274 28.3634 251.035 28.4445 250.738 28.721C250.689 28.7667 250.639 28.8124 250.588 28.8594C250.537 28.9075 250.485 28.9556 250.432 29.0051C250.385 29.0493 250.337 29.0934 250.288 29.1389C250.11 29.3039 249.933 29.4693 249.755 29.6347C249.358 30.004 248.961 30.3733 248.552 30.7538C249.364 31.632 250.175 32.5101 251.012 33.4148C251.42 33.0458 251.828 32.6768 252.249 32.2966C252.377 32.1812 252.506 32.0658 252.639 31.9469C252.741 31.8539 252.842 31.7608 252.944 31.6676C252.997 31.6206 253.05 31.5736 253.105 31.5252C253.422 31.2323 253.577 31.0305 253.633 30.5888C253.631 29.962 253.338 29.6881 252.938 29.2479Z" fill="#FDFDFD"/>
<path d="M259.49 36.3347C259.441 36.278 259.391 36.2213 259.34 36.1629C259.02 35.8105 258.735 35.5746 258.257 35.4793C257.87 35.4821 257.655 35.5194 257.372 35.7826C257.321 35.8294 257.271 35.8761 257.219 35.9242C257.166 35.9737 257.113 36.0231 257.058 36.0741C257.009 36.1193 256.961 36.1645 256.91 36.2111C256.728 36.3804 256.546 36.5501 256.364 36.7198C255.956 37.0986 255.549 37.4774 255.129 37.8677C255.941 38.7459 256.753 39.624 257.589 40.5287C257.987 40.1692 258.385 39.8097 258.795 39.4393C258.983 39.2709 258.983 39.2709 259.175 39.0991C259.274 39.0083 259.373 38.9175 259.473 38.8265C259.524 38.7809 259.576 38.7352 259.629 38.6882C259.965 38.3783 260.115 38.1496 260.21 37.7027C260.161 37.0736 259.895 36.781 259.49 36.3347Z" fill="#FEFEFE"/>
<path d="M246.85 17.2585C246.703 17.2869 246.555 17.316 246.408 17.3455C246.326 17.3616 246.244 17.3778 246.159 17.3944C245.931 17.4512 245.931 17.4512 245.649 17.6012C245.788 18.212 245.928 18.8227 246.072 19.452C245.873 19.4697 245.873 19.4697 245.67 19.4877C245.552 19.5118 245.434 19.5385 245.317 19.5677C245.221 19.5912 245.221 19.5912 245.124 19.6152C245.059 19.6315 244.994 19.6479 244.927 19.6648C244.86 19.6813 244.793 19.6979 244.724 19.7149C244.56 19.7555 244.397 19.7964 244.233 19.8375C244.249 19.9668 244.267 20.096 244.285 20.2252C244.294 20.2971 244.304 20.3691 244.314 20.4432C244.362 20.6668 244.44 20.8345 244.554 21.0309C244.601 21.0195 244.648 21.0081 244.697 20.9963C244.912 20.9447 245.126 20.8934 245.34 20.8422C245.415 20.8242 245.489 20.8062 245.566 20.7877C245.638 20.7706 245.709 20.7536 245.783 20.736C245.882 20.7123 245.882 20.7123 245.983 20.6881C246.166 20.6455 246.166 20.6455 246.393 20.6454C246.395 20.7216 246.395 20.7216 246.397 20.7993C246.43 21.1358 246.508 21.4571 246.585 21.7852C246.6 21.8516 246.615 21.918 246.631 21.9863C246.669 22.1492 246.706 22.3121 246.745 22.4748C246.875 22.4561 247.004 22.4362 247.134 22.416C247.206 22.4051 247.278 22.3941 247.353 22.3829C247.57 22.3321 247.57 22.3321 247.946 22.1321C247.822 21.552 247.699 20.9719 247.571 20.3742C247.855 20.2609 248.088 20.17 248.376 20.1017C248.44 20.0865 248.503 20.0713 248.569 20.0556C248.633 20.0404 248.698 20.0252 248.765 20.0096C248.832 19.9937 248.898 19.9778 248.967 19.9615C249.13 19.9226 249.293 19.8841 249.456 19.8458C249.435 19.6857 249.412 19.5256 249.39 19.3657C249.377 19.2766 249.365 19.1875 249.353 19.0956C249.303 18.8597 249.303 18.8597 249.135 18.6524C249.085 18.6654 249.035 18.6783 248.983 18.6916C248.756 18.7501 248.529 18.8081 248.301 18.8661C248.222 18.8865 248.143 18.9069 248.062 18.9279C247.986 18.9472 247.911 18.9665 247.832 18.9864C247.763 19.0043 247.693 19.0222 247.621 19.0406C247.431 19.0883 247.431 19.0883 247.202 19.0879C247.201 19.0371 247.199 18.9863 247.198 18.934C247.165 18.5975 247.087 18.2762 247.01 17.9481C246.995 17.8817 246.98 17.8153 246.964 17.747C246.926 17.5841 246.888 17.4212 246.85 17.2585Z" fill="#6A7B9A"/>
</svg>
