<svg width="90" height="80" viewBox="0 0 90 80" fill="none" xmlns="http://www.w3.org/2000/svg">
<path d="M51.3134 7.85214C51.3134 7.85214 50.2942 0 47.6471 0C45.0001 0 34.4119 2.7181 34.4119 2.7181C34.4119 2.7181 23.8236 13.5854 21.1766 13.5854C21.1766 13.5854 15.8825 13.5854 10.5884 19.0191C5.29427 24.4528 5.29426 35.3201 5.29426 35.3201C5.29426 35.3201 0.000153343 46.1874 0.000153343 51.6211C0.000153343 57.0548 2.64721 62.4884 5.29426 65.2065C7.94132 67.9246 18.5295 70.6402 18.5295 70.6402C18.5295 70.6402 21.1766 76.0739 26.4707 78.792C42.353 81.51 52.9412 78.792 52.9412 78.792L58.2353 73.3583C58.2353 73.3583 76.7647 70.6402 79.4118 70.6402C82.0588 70.6402 90 59.7729 90 57.0548C90 54.3367 90 46.1874 87.3529 38.0357C82.0457 31.3479 77.5192 38.9143 77.5192 38.9143C77.5192 38.9143 64.2641 36.7815 61.617 31.3479C45.0001 31.3479 48.395 16.3035 48.395 16.3035L51.3134 7.85214Z" fill="#6C5A5A"/>
<path d="M50.4802 7.22635C50.4802 7.22635 50.1836 0.978516 47.6927 0.978516C45.2018 0.978516 34.4839 3.88372 34.4839 3.88372C34.4839 3.88372 25.0233 14.0532 22.5324 14.0532C22.5324 14.0532 17.1378 13.9394 12.1534 19.057C7.16895 24.1746 7.63218 33.2594 7.63218 33.2594C7.63218 33.2594 2.64778 43.4896 2.64778 48.6046C2.64778 53.7197 5.13866 58.8373 7.62953 61.3961C10.1204 63.9549 20.0866 66.5112 20.0866 66.5112C20.0866 66.5112 22.5775 71.6263 27.5619 74.1851C42.5098 76.7439 52.4759 74.1851 52.4759 74.1851L57.4577 69.07C57.4577 69.07 74.8965 66.5112 77.3874 66.5112C79.8782 66.5112 87.3535 56.2785 87.3535 53.7197C87.3535 51.1609 87.3535 43.487 84.8626 35.8131C79.4257 37.2645 78.8897 35.1595 78.8897 35.1595C78.8897 35.1595 68.635 36.3517 66.1441 31.2341C52.2074 29.669 45.1794 17.6942 45.1794 17.6942L50.4802 7.22635Z" fill="#8D6D6D"/>
<path d="M58.4599 5.91913C58.4599 5.91913 49.8464 3.38309 47.517 3.38309C45.1876 3.38309 35.1632 5.91913 35.1632 5.91913C35.1632 5.91913 26.3167 14.7966 23.9873 14.7966C23.9873 14.7966 18.942 14.698 14.2805 19.1632C9.62171 23.6285 10.0505 31.5603 10.0505 31.5603C10.0505 31.5603 9.32258 42.2936 7.43523 42.6172C2.64406 43.4365 6.99318 52.0054 9.32259 54.2381C11.652 56.4707 27.8785 57.4669 27.8785 57.4669C27.8785 57.4669 27.3067 64.4328 31.9682 66.668C45.9473 68.9006 51.9931 67.29 51.9931 67.29L56.652 62.8247C56.652 62.8247 68.0078 52.4656 70.3372 52.4656C72.6666 52.4656 84.6128 51.659 84.6128 49.4264C84.6128 47.1938 91.0385 54.8588 85.44 34.8182C65.9047 36.6539 70.3372 28.162 70.3372 28.162C70.3372 28.162 65.8215 24.1797 56.9115 21.3921C46.7865 23.0419 50.4195 13.0861 50.4195 13.0861L58.4599 5.91913Z" fill="#DBBDBD"/>
<path d="M62.6347 53.9119L52.0968 58.5921L53.4599 45.5705L64.7734 46.9156L62.6347 53.9119Z" fill="#8D6D6D"/>
<path d="M88.4199 47.7854C88.4199 47.7854 85.4314 57.3076 84.6452 58.4378C83.859 59.5681 73.7949 58.7615 72.5376 58.7615C71.2802 58.7615 65.147 61.8285 65.147 61.8285C65.147 61.8285 73.3238 63.9271 76.1535 63.6035C78.9832 63.2798 86.3393 62.0181 87.0037 60.2128C87.6682 58.4075 88.4199 47.7854 88.4199 47.7854Z" fill="#6C5A5A"/>
<path d="M56.6517 60.0776C55.3547 59.6856 46.4315 56.0421 44.5441 56.2039C42.6568 56.3658 34.6362 60.7223 36.5235 62.1762C38.4109 63.63 48.79 62.4998 51.7759 62.4998C54.7617 62.4998 59.3253 60.8841 56.6517 60.0776ZM79.6123 36.0028C78.8102 34.559 68.132 34.066 68.132 34.066C68.132 34.066 54.2932 39.3935 54.2932 40.2C54.2932 41.0066 66.872 46.4959 68.132 46.6552C69.392 46.8145 80.2423 37.133 79.6123 36.0028ZM48.6338 45.8486C48.8826 44.5718 43.2868 36.8094 42.1856 36.1646C41.0844 35.5199 26.3033 31.8055 23.7886 31.8055C21.2739 31.8055 13.2533 37.4541 13.0945 38.5844C12.9383 39.7146 20.17 47.4618 22.0574 48.1065C23.9447 48.7538 48.1626 48.2684 48.6338 45.8486ZM34.48 24.5413C35.0756 25.8991 20.3262 27.7701 18.7539 27.1228C17.1815 26.4781 14.3518 22.119 14.823 20.9888C15.2942 19.8586 19.855 16.6297 22.2136 16.9534C24.5747 17.2795 33.0665 21.315 34.48 24.5413ZM46.1165 4.69031C44.7982 4.96086 36.0524 6.95076 34.9512 8.56392C33.85 10.1771 40.1394 15.1809 41.8706 15.3427C43.5991 15.5045 53.4502 8.60185 54.7075 7.79527C55.9649 6.98869 48.4776 4.20485 46.1165 4.69031Z" fill="#DBA9A9"/>
<path d="M58.0684 71.51C59.1696 69.8968 57.4384 64.5694 56.4961 65.2141C55.5537 65.8589 52.7214 67.7957 52.5652 69.4114C52.409 71.0245 49.5767 74.0916 47.5332 75.06C45.4896 76.0284 34.3244 76.0284 32.437 75.3836C30.5497 74.7388 26.1476 71.1863 25.0464 69.0877C23.9453 66.9891 22.6747 66.8349 20.0859 66.5087C17.497 66.1825 14.9982 68.6427 18.5294 70.6402C22.0579 72.6377 25.8326 76.1902 30.2347 76.9968C34.6367 77.8033 48.9467 78.4506 51.464 77.4822C53.9814 76.5138 58.0684 71.51 58.0684 71.51Z" fill="#6C5A5A"/>
<path d="M39.1765 59.8538C40.5026 59.1736 40.9976 53.5452 40.3147 53.0775C39.6318 52.6097 33.2577 53.5453 31.778 53.7779C30.2982 54.0105 21.3062 53.3101 20.3956 54.2456C19.485 55.1812 17.2906 58.6098 16.5256 60.6705C15.7606 62.7337 20.7371 62.4227 22.6721 61.9549C24.6071 61.4872 37.3553 60.7893 39.1765 59.8538ZM59.3285 22.6045C57.6 22.6045 50.3656 22.4426 48.7932 22.6045C47.2209 22.7663 42.1888 27.2846 44.5473 27.7701C46.9059 28.2556 53.1953 29.8687 54.1403 30.0305C55.0853 30.1924 58.5423 27.1253 59.6435 26.3188C60.742 25.5097 61.2132 22.6045 59.3285 22.6045ZM39.5126 18.0861C38.6391 16.7435 35.2668 16.3111 35.1106 17.7624C34.9544 19.2163 35.8968 22.4426 37.7841 22.2808C39.6715 22.1215 40.7726 20.0229 39.5126 18.0861ZM48.6344 52.142C47.0647 51.9624 44.0735 51.6565 44.0735 52.9485C44.0735 54.2406 45.9609 54.7235 48.1632 54.5617C50.3629 54.4024 50.0506 52.3038 48.6344 52.142Z" fill="#8D6D6D"/>
<path d="M54.7671 34.2278C53.3933 33.1001 48.6339 32.9357 47.5327 33.4212C46.4315 33.9067 48.79 37.2948 50.2062 37.4566C51.6224 37.6159 56.3394 35.5173 54.7671 34.2278Z" fill="#DBA9A9"/>
<path d="M23.318 58.9208C21.7483 58.5187 17.971 58.1142 18.1298 59.2444C18.286 60.3746 19.8583 62.4733 21.1183 62.3114C22.3783 62.1496 24.5754 59.2444 23.318 58.9208ZM33.5383 70.2205C31.8019 69.9449 29.1363 68.6073 29.2924 70.2205C29.4486 71.8336 31.336 73.9322 33.3821 73.6111C35.4257 73.2875 35.5819 70.5416 33.5383 70.2205Z" fill="#6C5A5A"/>
</svg>
